<svg xmlns="http://www.w3.org/2000/svg" width="92.414" height="36" viewBox="0 0 92.414 36">
  <g id="Group_4" data-name="Group 4" transform="translate(-53.446 -51.132)">
    <path id="Path_6" data-name="Path 6" d="M57.273,51.666v7.989c0,3.593-.1,6.916-.268,9.938l.067.033c1.175-2.552,2.652-5.27,4.129-7.822l5.975-10.138h4.2V74.293H67.546V66.269c0-3.558.033-6.445.3-9.365H67.78a63.866,63.866,0,0,1-4.028,7.822l-5.707,9.567h-4.6V51.666Z" transform="translate(0 -0.165)" fill="#003765"/>
    <path id="Path_7" data-name="Path 7" d="M92.324,51.666V60.73h9.567V51.666h4.13V74.293h-4.13V64.322H92.324v9.971H88.2V51.666Z" transform="translate(-10.708 -0.165)" fill="#003765"/>
    <path id="Path_8" data-name="Path 8" d="M164.788,61h10.07c-.336-3.659-2.719-6.512-6.916-6.512a12.466,12.466,0,0,0-4.733,1.007l-.873-3.054a14.768,14.768,0,0,1,5.908-1.31c7.587,0,11.078,5.3,11.078,11.716,0,7.52-5.069,11.648-11.414,11.648a15.508,15.508,0,0,1-5.875-1.108l.773-3.223a12.731,12.731,0,0,0,4.7.939,7.024,7.024,0,0,0,7.352-6.882h-10.07Z" transform="translate(-33.463 0)" fill="#003765"/>
    <g id="Group_3" data-name="Group 3" transform="translate(98.936 51.132)">
      <rect id="Rectangle_3" data-name="Rectangle 3" width="4.301" height="13.257" transform="translate(22.477 26.08) rotate(-41.562)" fill="#040505"/>
      <path id="Path_9" data-name="Path 9" d="M125.987,66.913a9.267,9.267,0,0,1,10.607-7.7,9.112,9.112,0,0,1,2.971,1.021A7.969,7.969,0,0,0,125.9,67.746C125.917,67.47,125.942,67.194,125.987,66.913Z" transform="translate(-121.156 -53.083)" fill="#040505"/>
      <path id="Path_10" data-name="Path 10" d="M141.4,55.407a12.7,12.7,0,1,0-1.075,17.93A12.7,12.7,0,0,0,141.4,55.407ZM124.758,70.166a9.545,9.545,0,1,1,13.476.809A9.545,9.545,0,0,1,124.758,70.166Z" transform="translate(-119.199 -51.132)" fill="#040505"/>
      <rect id="Rectangle_4" data-name="Rectangle 4" width="4.535" height="3.977" transform="matrix(0.748, -0.663, 0.663, 0.748, 18.911, 22.037)" fill="#040505"/>
    </g>
  </g>
</svg>
