<svg id="Group_113" data-name="Group 113" xmlns="http://www.w3.org/2000/svg" width="131.191" height="44" viewBox="0 0 131.191 44">
  <g id="Group_57" data-name="Group 57" transform="translate(0)">
    <g id="Group_5" data-name="Group 5" transform="translate(5.968 6.777)">
      <path id="Path_11" data-name="Path 11" d="M39.987,6.7H21.477a4.616,4.616,0,0,0-4.248,2.933L10.047,29.357A4.481,4.481,0,0,1,5.9,32.291H24.511a4.616,4.616,0,0,0,4.248-2.933L35.941,9.633A4.128,4.128,0,0,1,39.987,6.7Z" transform="translate(-5.9 -6.7)" fill="#d5ae75"/>
    </g>
    <g id="Group_6" data-name="Group 6">
      <path id="Path_12" data-name="Path 12" d="M15.982,9.2a5.813,5.813,0,0,1,5.563-3.844h1.821l1.113-2.933A3.582,3.582,0,0,1,27.917,0H12.745A3.582,3.582,0,0,0,9.306,2.428L3.439,18.611A3.721,3.721,0,0,1,0,21.039H11.733Z" transform="translate(0)" fill="#e6d4b6"/>
    </g>
    <g id="Group_56" data-name="Group 56" transform="translate(40.662 14.768)">
      <g id="Group_55" data-name="Group 55">
        <g id="Group_8" data-name="Group 8">
          <g id="Group_7" data-name="Group 7">
            <path id="Path_13" data-name="Path 13" d="M44.752,15.409h.506a2.993,2.993,0,0,1,1.011.2,2.2,2.2,0,0,1,.809.506,1.814,1.814,0,0,1,.506.708,2.63,2.63,0,0,1,0,2.023,1.36,1.36,0,0,1-.607.708,2.2,2.2,0,0,1-.809.506,2.992,2.992,0,0,1-1.011.2h-.506v.809H43.234v-.809h-.506a2.992,2.992,0,0,1-1.011-.2,2.2,2.2,0,0,1-.809-.506,1.814,1.814,0,0,1-.506-.708,2.63,2.63,0,0,1,0-2.023,1.36,1.36,0,0,1,.607-.708,2.2,2.2,0,0,1,.809-.506,2.992,2.992,0,0,1,1.011-.2h.506V14.6h1.416ZM42.83,16.623a1.073,1.073,0,0,0-1.214,1.214,1,1,0,0,0,.3.809,1.236,1.236,0,0,0,.91.3h.506V16.623H42.83Zm2.428,2.428a1.073,1.073,0,0,0,1.214-1.214,1,1,0,0,0-.3-.809,1.236,1.236,0,0,0-.91-.3h-.506v2.326Z" transform="translate(-40.2 -14.6)" fill="#3c3c3b"/>
          </g>
        </g>
        <g id="Group_10" data-name="Group 10" transform="translate(9.002)">
          <g id="Group_9" data-name="Group 9">
            <path id="Path_14" data-name="Path 14" d="M53.652,14.8a2.582,2.582,0,0,1,1.011.708,3.633,3.633,0,0,1,.708,1.011,2.776,2.776,0,0,1,.2,1.315,5.92,5.92,0,0,1-.2,1.315,3.552,3.552,0,0,1-1.72,1.72,3.115,3.115,0,0,1-1.315.3,5.125,5.125,0,0,1-1.315-.2,2.582,2.582,0,0,1-1.011-.708,3.633,3.633,0,0,1-.708-1.011,2.776,2.776,0,0,1-.2-1.315,5.92,5.92,0,0,1,.2-1.315,3.552,3.552,0,0,1,1.72-1.72,2.8,2.8,0,0,1,1.315-.3A5.125,5.125,0,0,1,53.652,14.8Zm-2.124,1.214a1.86,1.86,0,0,0-1.011,1.011,1.972,1.972,0,0,0-.1.809,2.227,2.227,0,0,0,.1.809c.1.2.2.506.4.607a2.116,2.116,0,0,0,.607.4,1.72,1.72,0,0,0,1.618,0,1.86,1.86,0,0,0,1.011-1.011,1.972,1.972,0,0,0,.1-.809,1.972,1.972,0,0,0-.1-.809c-.1-.2-.2-.506-.4-.607a2.116,2.116,0,0,0-.607-.4,1.972,1.972,0,0,0-.809-.1A1.075,1.075,0,0,0,51.528,16.016Z" transform="translate(-49.1 -14.6)" fill="#3c3c3b"/>
          </g>
        </g>
        <g id="Group_12" data-name="Group 12" transform="translate(16.993 0.202)">
          <g id="Group_11" data-name="Group 11">
            <path id="Path_15" data-name="Path 15" d="M58.416,17.228h2.731V14.8h1.416v6.271H61.147V18.543H58.416v2.529H57V14.8h1.416Z" transform="translate(-57 -14.8)" fill="#3c3c3b"/>
          </g>
        </g>
        <g id="Group_14" data-name="Group 14" transform="translate(23.871 0.202)">
          <g id="Group_13" data-name="Group 13">
            <path id="Path_16" data-name="Path 16" d="M70.071,19.756h.91v.4l-.1,2.225H69.566V21.071H65.317l-.1,1.315H63.9l-.1-2.225v-.4h.3a.608.608,0,0,0,.4-.1,1.4,1.4,0,0,0,.3-.4,5.8,5.8,0,0,0,.4-1.416,12.262,12.262,0,0,0,.1-2.023V14.8h4.754Zm-3.54-1.517a5.477,5.477,0,0,1-.4,1.517h2.529V16.014H66.733A12.88,12.88,0,0,1,66.531,18.239Z" transform="translate(-63.8 -14.8)" fill="#3c3c3b"/>
          </g>
        </g>
        <g id="Group_16" data-name="Group 16" transform="translate(0.405 11.43)">
          <g id="Group_15" data-name="Group 15">
            <path id="Path_17" data-name="Path 17" d="M46.062,32.171H44.646V27.215h-2.63v4.956H40.6V25.9h5.462Z" transform="translate(-40.6 -25.9)" fill="#3c3c3b"/>
          </g>
        </g>
        <g id="Group_18" data-name="Group 18" transform="translate(7.687 11.489)">
          <g id="Group_17" data-name="Group 17">
            <path id="Path_18" data-name="Path 18" d="M51.543,26.1a2.2,2.2,0,0,1,.809.506,1.814,1.814,0,0,1,.506.708,2.953,2.953,0,0,1,.2.91,2.992,2.992,0,0,1-.2,1.011,1.814,1.814,0,0,1-.506.708,2.033,2.033,0,0,1-.809.4,3.594,3.594,0,0,1-1.011.2H49.216v1.72H47.8V26h2.832A1.428,1.428,0,0,1,51.543,26.1ZM50.43,29.237a1.236,1.236,0,0,0,.91-.3,1,1,0,0,0,.3-.809.787.787,0,0,0-.3-.708,1.236,1.236,0,0,0-.91-.3H49.115v2.023H50.43Z" transform="translate(-47.8 -25.959)" fill="#3c3c3b"/>
          </g>
        </g>
        <g id="Group_20" data-name="Group 20" transform="translate(14.262 11.531)">
          <g id="Group_19" data-name="Group 19">
            <path id="Path_19" data-name="Path 19" d="M59.054,27.214H55.716v1.214h2.933v1.214H55.716v1.315h3.439v1.315H54.3V26h4.754Z" transform="translate(-54.3 -26)" fill="#3c3c3b"/>
          </g>
        </g>
        <g id="Group_22" data-name="Group 22" transform="translate(20.432 11.228)">
          <g id="Group_21" data-name="Group 21">
            <path id="Path_20" data-name="Path 20" d="M63.839,28.229a.609.609,0,0,0,0-.91,1.149,1.149,0,0,0-.809-.3,2.48,2.48,0,0,0-1.618.607L60.7,26.61a4.177,4.177,0,0,1,1.113-.708,5.125,5.125,0,0,1,1.315-.2,3.118,3.118,0,0,1,1.011.1,1.63,1.63,0,0,1,.708.4c.2.2.4.3.506.607a1.875,1.875,0,0,1,.2.708,1.462,1.462,0,0,1-.2.708,1.219,1.219,0,0,1-.506.506v.1a1.814,1.814,0,0,1,.708.506,1.236,1.236,0,0,1,.3.91,1.906,1.906,0,0,1-.2.809,1.487,1.487,0,0,1-.506.607,2.033,2.033,0,0,1-.809.4,3.773,3.773,0,0,1-1.214.2,2.227,2.227,0,0,1-.809-.1,1.875,1.875,0,0,1-.708-.2l-.607-.3c-.2-.1-.4-.3-.607-.4l.708-1.011a1.927,1.927,0,0,0,1.011.506,3.636,3.636,0,0,0,1.113.2,2.02,2.02,0,0,0,.91-.2.874.874,0,0,0,.3-.607.721.721,0,0,0-.809-.708H62.018V28.229h1.416A.308.308,0,0,0,63.839,28.229Z" transform="translate(-60.4 -25.7)" fill="#3c3c3b"/>
          </g>
        </g>
        <g id="Group_24" data-name="Group 24" transform="translate(27.108 11.43)">
          <g id="Group_23" data-name="Group 23">
            <path id="Path_21" data-name="Path 21" d="M68.517,30.148,71.552,25.9h1.214v6.271H71.349V28.226l-2.933,3.945H67V25.9h1.416v4.248Z" transform="translate(-67 -25.9)" fill="#3c3c3b"/>
          </g>
        </g>
        <g id="Group_26" data-name="Group 26" transform="translate(34.189 11.531)">
          <g id="Group_25" data-name="Group 25">
            <path id="Path_22" data-name="Path 22" d="M80.271,30.956h.91v.4l-.1,2.225H79.766l-.1-1.315H75.416l-.1,1.315H74v-2.63h.3a.608.608,0,0,0,.4-.1,1.4,1.4,0,0,0,.3-.4,5.8,5.8,0,0,0,.4-1.416,12.262,12.262,0,0,0,.1-2.023V26h4.754v4.956Zm-3.54-1.517a5.477,5.477,0,0,1-.4,1.517h2.529V27.214H76.933C76.832,28.023,76.832,28.832,76.731,29.439Z" transform="translate(-74 -26)" fill="#3c3c3b"/>
          </g>
        </g>
        <g id="Group_28" data-name="Group 28" transform="translate(42.685 11.531)">
          <g id="Group_27" data-name="Group 27">
            <path id="Path_23" data-name="Path 23" d="M87.154,27.214H83.816v1.214h2.933v1.214H83.816v1.315h3.439v1.315H82.4V26h4.754v1.214Z" transform="translate(-82.4 -26)" fill="#3c3c3b"/>
          </g>
        </g>
        <g id="Group_30" data-name="Group 30" transform="translate(49.057 11.43)">
          <g id="Group_29" data-name="Group 29">
            <path id="Path_24" data-name="Path 24" d="M90.116,28.328h2.731V25.9h1.416v6.271H92.847V29.643H90.116v2.529H88.7V25.9h1.416Z" transform="translate(-88.7 -25.9)" fill="#3c3c3b"/>
          </g>
        </g>
        <g id="Group_32" data-name="Group 32" transform="translate(56.037 11.43)">
          <g id="Group_31" data-name="Group 31">
            <path id="Path_25" data-name="Path 25" d="M101.264,27.215H99.14v5.057H97.724V27.215H95.6V25.9h5.766v1.315Z" transform="translate(-95.6 -25.9)" fill="#3c3c3b"/>
          </g>
        </g>
        <g id="Group_34" data-name="Group 34" transform="translate(62.713 11.126)">
          <g id="Group_33" data-name="Group 33">
            <path id="Path_26" data-name="Path 26" d="M106.448,27.218a2.953,2.953,0,0,0-.91-.2,1.972,1.972,0,0,0-.809.1c-.2.1-.506.2-.607.4a2.116,2.116,0,0,0-.4.607,1.972,1.972,0,0,0-.1.809,1.972,1.972,0,0,0,.1.809,1.86,1.86,0,0,0,1.011,1.011,1.972,1.972,0,0,0,.809.1,2.992,2.992,0,0,0,1.011-.2,2.2,2.2,0,0,0,.809-.506l.809,1.011a3.661,3.661,0,0,1-2.731,1.011,5.125,5.125,0,0,1-1.315-.2,3.552,3.552,0,0,1-1.72-1.72,2.776,2.776,0,0,1-.2-1.315,5.92,5.92,0,0,1,.2-1.315,3.633,3.633,0,0,1,.708-1.011,4.177,4.177,0,0,1,1.113-.708,3.231,3.231,0,0,1,1.416-.3,5.125,5.125,0,0,1,1.315.2,3.925,3.925,0,0,1,1.113.607l-.809,1.011C107.055,27.522,106.752,27.32,106.448,27.218Z" transform="translate(-102.2 -25.6)" fill="#3c3c3b"/>
          </g>
        </g>
        <g id="Group_36" data-name="Group 36" transform="translate(69.995 11.43)">
          <g id="Group_35" data-name="Group 35">
            <path id="Path_27" data-name="Path 27" d="M110.816,28.328l.708-.1,1.821-2.326h1.72l-2.326,2.933,2.529,3.338h-1.821l-1.922-2.731h-.708v2.731H109.4V25.9h1.416v2.428Z" transform="translate(-109.4 -25.9)" fill="#3c3c3b"/>
          </g>
        </g>
        <g id="Group_38" data-name="Group 38" transform="translate(76.975 11.43)">
          <g id="Group_37" data-name="Group 37">
            <path id="Path_28" data-name="Path 28" d="M117.817,30.148l3.034-4.248h1.214v6.271h-1.416V28.226l-2.933,3.945H116.3V25.9h1.416v4.248Z" transform="translate(-116.3 -25.9)" fill="#3c3c3b"/>
          </g>
        </g>
        <g id="Group_40" data-name="Group 40" transform="translate(83.954 11.43)">
          <g id="Group_39" data-name="Group 39">
            <path id="Path_29" data-name="Path 29" d="M126.538,28.125h0l1.315-2.225h1.72l-2.023,3.136,2.225,3.237h-1.821l-1.416-2.428h-.1l-1.416,2.428H123.2l2.225-3.237L123.4,26h1.72Z" transform="translate(-123.2 -25.9)" fill="#3c3c3b"/>
          </g>
        </g>
        <g id="Group_42" data-name="Group 42" transform="translate(0.405 22.86)">
          <g id="Group_41" data-name="Group 41">
            <path id="Path_30" data-name="Path 30" d="M45.354,38.414H42.016v5.057H40.6V37.2h4.754Z" transform="translate(-40.6 -37.2)" fill="#3c3c3b"/>
          </g>
        </g>
        <g id="Group_44" data-name="Group 44" transform="translate(6.474 22.793)">
          <g id="Group_43" data-name="Group 43">
            <path id="Path_31" data-name="Path 31" d="M50.343,37.3a2.2,2.2,0,0,1,.809.506,1.814,1.814,0,0,1,.506.708,2.953,2.953,0,0,1,.2.91,2.992,2.992,0,0,1-.2,1.011,1.814,1.814,0,0,1-.506.708,2.033,2.033,0,0,1-.809.4,3.594,3.594,0,0,1-1.011.2H48.016v1.72H46.6V37.2h2.832A.983.983,0,0,1,50.343,37.3ZM49.23,40.438a1.236,1.236,0,0,0,.91-.3,1,1,0,0,0,.3-.809.787.787,0,0,0-.3-.708,1.236,1.236,0,0,0-.91-.3H47.915v2.023H49.23Z" transform="translate(-46.6 -37.134)" fill="#3c3c3b"/>
          </g>
        </g>
        <g id="Group_46" data-name="Group 46" transform="translate(12.138 22.759)">
          <g id="Group_45" data-name="Group 45">
            <path id="Path_32" data-name="Path 32" d="M58.977,43.371H57.46l-.506-1.214H54.223l-.506,1.214H52.2L54.83,37.1h1.517Zm-2.529-2.428-.809-2.428h-.1l-.809,2.428Z" transform="translate(-52.2 -37.1)" fill="#3c3c3b"/>
          </g>
        </g>
        <g id="Group_48" data-name="Group 48" transform="translate(20.23 22.759)">
          <g id="Group_47" data-name="Group 47">
            <path id="Path_33" data-name="Path 33" d="M61.616,39.528h2.731V37.1h1.416v6.271H64.347V40.843H61.616v2.529H60.2V37.1h1.416v2.428Z" transform="translate(-60.2 -37.1)" fill="#3c3c3b"/>
          </g>
        </g>
        <g id="Group_50" data-name="Group 50" transform="translate(27.108 22.759)">
          <g id="Group_49" data-name="Group 49">
            <path id="Path_34" data-name="Path 34" d="M72.766,38.415H70.641v5.057H69.225V38.415H67V37.1h5.766Z" transform="translate(-67 -37.1)" fill="#3c3c3b"/>
          </g>
        </g>
        <g id="Group_52" data-name="Group 52" transform="translate(33.885 22.657)">
          <g id="Group_51" data-name="Group 51">
            <path id="Path_35" data-name="Path 35" d="M78.252,37.2a2.582,2.582,0,0,1,1.011.708,3.633,3.633,0,0,1,.708,1.011,2.776,2.776,0,0,1,.2,1.315,5.92,5.92,0,0,1-.2,1.315,3.552,3.552,0,0,1-1.72,1.72,3.115,3.115,0,0,1-1.315.3,5.125,5.125,0,0,1-1.315-.2,2.582,2.582,0,0,1-1.011-.708,3.633,3.633,0,0,1-.708-1.011,2.776,2.776,0,0,1-.2-1.315,5.92,5.92,0,0,1,.2-1.315,3.552,3.552,0,0,1,1.72-1.72,1.966,1.966,0,0,1,1.315-.3A2.776,2.776,0,0,1,78.252,37.2Zm-2.124,1.214a1.86,1.86,0,0,0-1.011,1.011,3.287,3.287,0,0,0,0,1.618c.1.2.2.506.4.607a2.116,2.116,0,0,0,.607.4,1.72,1.72,0,0,0,1.618,0c.2-.1.4-.3.607-.4a2.116,2.116,0,0,0,.4-.607,3.288,3.288,0,0,0,0-1.618c-.1-.2-.2-.506-.4-.607a2.116,2.116,0,0,0-.607-.4,1.972,1.972,0,0,0-.809-.1A1.075,1.075,0,0,0,76.128,38.416Z" transform="translate(-73.7 -37)" fill="#3c3c3b"/>
          </g>
        </g>
        <g id="Group_54" data-name="Group 54" transform="translate(42.078 22.657)">
          <g id="Group_53" data-name="Group 53">
            <path id="Path_36" data-name="Path 36" d="M86.048,37.506a1.442,1.442,0,0,1,.607,1.214,1.462,1.462,0,0,1-.2.708,2.206,2.206,0,0,1-.4.506v.1a1.814,1.814,0,0,1,.708.506,1.631,1.631,0,0,1,.3.91,1.5,1.5,0,0,1-.1.708,2.116,2.116,0,0,1-.4.607,1.63,1.63,0,0,1-.708.4,3.118,3.118,0,0,1-1.011.1H81.8V37h2.832A3.4,3.4,0,0,1,86.048,37.506ZM84.43,39.529a1.438,1.438,0,0,0,.607-.2.773.773,0,0,0,.2-.506c0-.4-.3-.607-.809-.607H83.014v1.315Zm.2,2.63c.607,0,.91-.2.91-.708a.773.773,0,0,0-.2-.506,1.462,1.462,0,0,0-.708-.2H83.014V42.26h1.618Z" transform="translate(-81.8 -37)" fill="#3c3c3b"/>
          </g>
        </g>
      </g>
    </g>
  </g>
</svg>
